<svg width="1315" height="512" viewBox="0 0 1315 512" fill="none" xmlns="http://www.w3.org/2000/svg"><path d="M122.5 351c26.235 0 47.5 21.265 47.5 47.5S148.735 446 122.5 446 75 424.735 75 398.5 96.265 351 122.5 351Z" fill="#FF9C3C"/><path d="M170 161H75v142.5h95V161Z" fill="#36C8EE"/><path d="M170 66v95H75c0-52.47 42.53-95 95-95Z" fill="#FF9C3C"/><path d="M455 161H170V66h180.945C408.416 66 455 108.53 455 161Z" fill="#FF6100"/><path d="M360 351H217.5v95H360v-95Z" fill="#36C8EE"/><path d="M455 351c0 52.47-42.53 95-95 95v-95h95Z" fill="#34A853"/><path d="M455 161h-95v190h95V161Z" fill="#FF9C3C"/><g clip-path="url(#a)" fill="#040000" fill-opacity=".8"><path d="M668.234 148.693v198.972h-28.568V176.497h-18.783V393.12h-28.568V176.497h-18.747v171.204H545V162.613c0-7.677 6.416-13.92 14.266-13.92h33.013v-31.93h28.569v31.93h47.386Zm92.516 24.073V157.77h62.979v-27.769H760.75v-13.238h-28.569v56.003h-39.357c-7.886 0-14.266 6.243-14.266 13.92v126.322h28.568V200.571h100.258v112.437h28.568V172.766H760.75Zm5.627 98.41c5.664-28.773 5.198-49.546 5.126-51.555h-28.532c.036 1.005 2.366 103.181-68.643 159.113l17.994 21.633c33.873-26.728 53.301-61.6 64.413-93.566l63.589 90.589 23.586-15.678-77.533-110.536Z"/><path fill-rule="evenodd" clip-rule="evenodd" d="M956.247 286.172h-28.675V158.631h-42.907V129.93h42.907V106h28.675v23.93h42.907v28.701h-42.907v127.541Zm-66.241-115.666 28.676.61c-.072 3.624-1.972 89.369-11.65 120.832l-27.421-8.431c7.062-22.961 9.893-89.368 10.395-113.011Zm105.921.287h-28.675v116.922h28.675V170.793Zm-95.633 234.418-21.471-19.051c12.366-13.956 20.108-57.474 22.044-81.583l28.568 2.332c-.573 7.355-6.488 72.722-29.141 98.302Zm79.539-37.599v-59.304h-28.676v59.304c0 21.167 17.206 38.388 38.354 38.388h103.659v-28.701H989.511c-5.341 0-9.678-4.341-9.678-9.687Zm41.507-59.304h28.68v47.07h-28.68v-47.07Zm110.79.29-26.89 9.979 30.85 83.254 26.89-9.979-30.85-83.254Zm24.27-186.633v144.332c0 17.041-13.83 30.889-30.82 30.889h-118.04V145.249c0-12.844 10.43-23.284 23.26-23.284h125.6Zm-120.22 98.158h91.55v-18.942h-91.55v18.942Zm91.55-40.468v-28.989h-91.55v28.989h91.55Zm0 61.994h-91.55v26.836h89.36c1.22 0 2.19-.969 2.19-2.188v-24.648Z"/></g><defs><clipPath id="a"><path fill="#fff" transform="translate(545 106)" d="M0 0h618v300H0z"/></clipPath></defs></svg>