<svg width="24" height="24" viewBox="0 0 24 24" fill="none" xmlns="http://www.w3.org/2000/svg"><path d="m21.22 10.055-2.89-5.623A.795.795 0 0 0 17.625 4H6.415a.795.795 0 0 0-.705.428l-2.922 5.618a.795.795 0 0 0 .13.916l8.501 8.89a.794.794 0 0 0 .574.245.796.796 0 0 0 .575-.244l8.518-8.885a.795.795 0 0 0 .134-.913Zm-4.521.895-4.127 4.303a.795.795 0 0 1-.573.245h-.001a.795.795 0 0 1-.574-.245l-4.118-4.307a.795.795 0 0 1 1.15-1.098l3.543 3.706 3.552-3.705a.795.795 0 1 1 1.148 1.1Z" fill="url(#a)"/><defs><linearGradient id="a" x1="2.698" y1="4" x2="22.477" y2="18.502" gradientUnits="userSpaceOnUse"><stop stop-color="#ACCFEF"/><stop offset="1" stop-color="#6089AF"/></linearGradient></defs></svg>