<svg width="110" height="78" viewBox="0 0 110 78" fill="none" xmlns="http://www.w3.org/2000/svg"><path d="M48.531 63.5H61.47a3.5 3.5 0 0 1 3.473 3.066L66.434 78.5H43.566l1.492-11.934a3.5 3.5 0 0 1 3.473-3.066Z" fill="#65C6DF" stroke="#3DB4D4"/><rect x="20.5" y="17.5" width="69" height="48" rx="7.5" fill="#9FE1EF" stroke="#3DB4D4"/><rect x="25" y="22" width="60" height="38" rx="2" fill="#F9FAFB"/><path opacity=".5" fill="#9FE1EF" d="M39 33h30v5H39zm5 7h20v5H44z"/><rect x="38.5" y="76.5" width="32" height="3" rx="1.5" fill="#9FE1EF" stroke="#3DB4D4"/><circle cx="28" cy="25" r="1" fill="#9FE1EF"/><circle cx="31" cy="25" r="1" fill="#9FE1EF"/><circle cx="34" cy="25" r="1" fill="#9FE1EF"/><circle opacity=".5" cx="31" cy="54" r="4" fill="#9FE1EF"/><path d="m82.658 77.93 1.776-12.43h5.132l1.776 12.43a.5.5 0 0 1-.495.57h-7.694a.5.5 0 0 1-.495-.57Z" fill="#65C6DF" stroke="#3DB4D4"/><rect x="80.5" y="76.5" width="13" height="3" rx="1.5" fill="#9FE1EF" stroke="#3DB4D4"/><circle cx="87" cy="54" r="15" fill="#9FE1EF" stroke="#F9FAFB" stroke-width="2"/><circle cx="87" cy="54" r="13.5" fill="#9FE1EF" stroke="#3DB4D4"/><circle cx="87" cy="54" r="8.5" fill="#3DB4D4" fill-opacity=".6" stroke="#3DB4D4"/><circle cx="89" cy="57" r="1" fill="#fff"/><circle cx="84" cy="51" r="2" fill="#fff"/></svg>