<svg width="16" height="16" viewBox="0 0 16 16" fill="none" xmlns="http://www.w3.org/2000/svg"><circle cx="8" cy="8" r="7.556" fill="#fff" stroke="url(#a)" stroke-width=".889"/><path d="m12.61 7.027-1.445-2.811A.398.398 0 0 0 10.812 4H5.208a.398.398 0 0 0-.353.214l-1.461 2.81a.397.397 0 0 0 .065.457l4.25 4.445a.399.399 0 0 0 .288.123.396.396 0 0 0 .287-.123l4.26-4.442a.398.398 0 0 0 .066-.457Zm-2.26.448L8.285 9.627A.397.397 0 0 1 8 9.749a.398.398 0 0 1-.287-.123l-2.06-2.153a.397.397 0 0 1 .575-.55L8 8.778l1.776-1.852a.397.397 0 0 1 .573.55Z" fill="url(#b)"/><defs><linearGradient id="a" x1="-4.646" y1="-14.521" x2="21.927" y2="11.547" gradientUnits="userSpaceOnUse"><stop stop-color="#FFEDD1"/><stop offset="1" stop-color="#E4BF60"/></linearGradient><linearGradient id="b" x1=".647" y1="-3.304" x2="13.912" y2="11.739" gradientUnits="userSpaceOnUse"><stop stop-color="#FFEDD1"/><stop offset="1" stop-color="#E4BF60"/></linearGradient></defs></svg>