<svg width="110" height="78" viewBox="0 0 110 78" fill="none" xmlns="http://www.w3.org/2000/svg"><path d="m47.44 78.33 1.804-20.759h11.512L62.56 78.33a1.143 1.143 0 0 1-1.139 1.241H48.578c-.67 0-1.197-.574-1.139-1.241Z" fill="#E9EBED" stroke="#CBCDD1"/><rect x="44" y="75.643" width="22" height="5.571" rx="2.786" fill="#E9EBED" stroke="#CBCDD1"/><circle cx="55" cy="39" r="23.5" fill="#E9EBED" stroke="#CBCDD1"/><mask id="a" style="mask-type:alpha" maskUnits="userSpaceOnUse" x="32" y="16" width="46" height="46"><circle cx="55" cy="39" r="22.5" fill="#CBCDD1" stroke="#CBCDD1"/></mask><g mask="url(#a)"><path d="M46 16h17l-2 4H49l-3-4Z" fill="#CBCDD1"/></g><circle opacity=".5" cx="55" cy="39" r="17.75" stroke="#CBCDD1" stroke-width=".5"/><circle cx="55" cy="39" r="12.25" fill="#CBCDD1" fill-opacity=".6" stroke="#CBCDD1" stroke-width="1.5"/><path opacity=".5" d="M37 39h-5m23 18v5m18-23h5" stroke="#CBCDD1" stroke-width=".5"/><circle cx="59.5" cy="45.5" r="1.5" fill="#F9FAFB"/><circle cx="50" cy="34" r="3" fill="#F9FAFB"/><circle cx="55" cy="18" r="1" fill="#82868E"/></svg>