<svg width="25" height="24" viewBox="0 0 25 24" fill="none" xmlns="http://www.w3.org/2000/svg"><path d="M18.496 16.044h-.5v.025c.087 1.743-1.516 3.347-3.764 3.428h-.027l-.087.001h-1.346a3869.69 3869.69 0 0 1-6.118-.008l-.998-.001h-.377 0-.001l-.001.5v-.5h-.034c-2.238.151-4.069-1.276-4.23-3.025v-.081l-.003-.287a1895.79 1895.79 0 0 1-.006-6.815V7.97h0-.5.5a.5.5 0 0 0 0-.027c-.09-1.746 1.511-3.353 3.76-3.438h.006a17.606 17.606 0 0 1 .413-.001h1.04a3766.26 3766.26 0 0 1 6.11.006l.998.002h.377l.001-.5v.5h.033c2.25-.15 4.086 1.287 4.247 3.045v.065l.002.304.003.986a2146.662 2146.662 0 0 1 .002 5.821v1.311h.5Z" fill="#fff" stroke="#fff" stroke-linecap="round" stroke-linejoin="round"/><circle cx="14" cy="8.5" r="1.5" fill="#FF9E40"/><path opacity=".8" d="m17.5 8.4 3.257-1.303A2 2 0 0 1 23.5 8.954v6.092a2 2 0 0 1-2.743 1.857L17.5 15.6V8.4Z" fill="#fff"/></svg>